<?xml version="1.0" encoding="UTF-8" standalone="no"?>
<!-- Created with Inkscape (http://www.inkscape.org/) -->

<svg
   width="210mm"
   height="297mm"
   viewBox="0 0 210 297"
   version="1.1"
   id="svg5"
   xml:space="preserve"
   inkscape:version="1.2 (dc2aedaf03, 2022-05-15)"
   sodipodi:docname="logo.svg"
   inkscape:export-filename="logo.png"
   inkscape:export-xdpi="96"
   inkscape:export-ydpi="96"
   xmlns:inkscape="http://www.inkscape.org/namespaces/inkscape"
   xmlns:sodipodi="http://sodipodi.sourceforge.net/DTD/sodipodi-0.dtd"
   xmlns="http://www.w3.org/2000/svg"
   xmlns:svg="http://www.w3.org/2000/svg"><sodipodi:namedview
     id="namedview7"
     pagecolor="#ffffff"
     bordercolor="#000000"
     borderopacity="0.25"
     inkscape:showpageshadow="2"
     inkscape:pageopacity="0.0"
     inkscape:pagecheckerboard="0"
     inkscape:deskcolor="#d1d1d1"
     inkscape:document-units="mm"
     showgrid="false"
     inkscape:zoom="1.5"
     inkscape:cx="246"
     inkscape:cy="156.66667"
     inkscape:window-width="1920"
     inkscape:window-height="1017"
     inkscape:window-x="-8"
     inkscape:window-y="-8"
     inkscape:window-maximized="1"
     inkscape:current-layer="g3688" /><defs
     id="defs2"><rect
       x="1695.6987"
       y="-28.708218"
       width="539.71449"
       height="570.33659"
       id="rect1027" /></defs><g
     inkscape:label="Calque 1"
     inkscape:groupmode="layer"
     id="layer1"><g
       id="g4144"
       transform="translate(-16.756944,-93.486111)"><g
         id="g4103"
         transform="matrix(0.91202154,0,0,0.9647689,1.5070885,5.6888138)"><g
           id="g3688"
           transform="matrix(0.27819796,0,0,0.28798453,-46.974858,89.7079)"><g
             id="g971"
             transform="rotate(0.15449663,1708.7815,622.56281)"><path
               style="fill:#00ff00;fill-opacity:1;stroke-width:0.35269"
               d="m 298.06452,163.93548 39.03224,-18.80645 18.09678,6.3871 -1.77419,19.51613 -4.6129,25.19354 -21.64517,18.09678 -34.77418,-12.06452 -10.29034,-24.83871 z"
               id="path358" /><path
               style="fill:#020202;stroke:none;stroke-width:0.264583"
               d="m 296.83064,29.161152 c -1.30862,5.496719 -0.26458,12.340961 -0.26458,17.991667 v 37.041668 11.906251 c 0,1.90103 0.37492,4.270642 -0.25559,6.085422 -1.30783,3.76396 -3.76369,7.38981 -5.71764,10.84791 -3.32079,5.87746 -6.60268,11.79222 -9.82001,17.72709 -11.66522,21.5175 -23.57491,42.91938 -35.49896,64.29375 -3.68123,6.59871 -7.36569,13.20165 -10.96653,19.84375 -3.36085,6.19945 -6.362,12.3735 -4.22559,19.57917 2.66039,8.97308 10.85628,16.41898 20.18224,17.87551 6.07457,0.9488 12.89949,0.11615 19.05,0.11615 h 112.44791 c 15.41966,0 33.73226,3.15516 43.00723,-12.43541 6.06928,-10.20207 1.27371,-19.01296 -3.76714,-28.31042 -4.07881,-7.52316 -8.19547,-15.03839 -12.40499,-22.48959 -11.09609,-19.64107 -21.98687,-39.43535 -32.73769,-59.26666 -3.6015,-6.64369 -7.42764,-13.17017 -10.97253,-19.84375 -1.42505,-2.68261 -3.55547,-5.53482 -4.38759,-8.46667 -0.77972,-2.747432 -0.16854,-6.411652 -0.16854,-9.260422 V 73.34657 44.242402 c 0,-4.498181 -0.66966,-9.581356 0.0392,-14.018948 0.27596,-1.726935 2.65615,-2.855383 3.44699,-4.501885 2.04153,-4.250214 0.8808,-11.161766 -2.69345,-14.231144 C 357.5343,8.4082674 350.21699,9.8465684 345.7786,9.8465684 h -33.07292 c -4.34604,0 -10.76192,-1.182185 -14.81666,0.4668836 -6.3627,2.587678 -8.10313,16.118523 -1.05834,18.8477 m 7.4083,-2.910417 c -4.42648,-0.03969 -6.47912,-7.618095 -2.37728,-9.638109 3.12473,-1.538685 8.98472,-0.416058 12.43144,-0.416058 h 29.36875 c 3.14643,0 10.39099,-1.345988 12.58517,1.351492 1.21682,1.495928 1.14909,6.430195 -0.254,7.798091 -0.86571,0.843995 -2.67282,0.583645 -3.17579,1.737493 -1.19883,2.751137 -0.15954,8.067675 -0.15954,11.073342 v 45.772917 c 0,7.469982 -0.70221,15.323345 0.0278,22.754167 0.25903,2.63737 2.61117,5.62954 3.85921,7.9375 3.19114,5.90021 6.29682,11.84725 9.52579,17.72709 10.60927,19.31776 21.37014,38.63472 31.49812,58.20833 3.08055,5.95392 6.30635,11.86392 9.55649,17.72709 2.10396,3.79544 4.58893,7.71763 5.81951,11.90625 1.62057,5.51656 1.14829,11.74564 -2.89693,16.13958 -9.43133,10.24334 -26.09823,7.14375 -38.60456,7.14375 h -97.89585 c -4.48389,0 -9.36175,0.54398 -13.75833,-0.44053 -8.39909,-1.88119 -15.7234,-8.9797 -16.11202,-17.81572 -0.22095,-5.02391 2.45399,-9.48214 4.66654,-13.75833 3.82418,-7.39088 7.93393,-14.64099 11.89289,-21.96042 9.77397,-18.06972 19.49476,-36.1696 29.26768,-54.23959 4.7707,-8.82147 10.30076,-17.5506 14.36079,-26.72291 0.92022,-2.07884 0.37412,-5.17076 0.37412,-7.40834 V 84.45907 26.250735 m 35.45522,0.979752 c -1.62375,0.556155 -2.29341,2.186253 -2.37172,3.782748 -0.17622,3.598069 -0.0106,7.245086 -0.0106,10.847917 v 46.302085 c 0,3.731154 -0.70194,8.274841 0.18098,11.906253 0.46355,1.90553 2.33944,3.29327 4.31694,2.69663 4.44077,-1.33985 2.64583,-11.265958 2.64583,-14.867466 V 41.596569 c 0,-3.662892 0.78661,-8.362156 -0.14763,-11.905986 -0.52494,-1.991783 -2.65457,-3.131079 -4.61381,-2.460096 M 298.68273,134.99449 c -2.59715,6.20527 -6.50664,12.07347 -9.70783,17.99167 -7.87294,14.55526 -16.09381,28.9597 -23.69793,43.65625 -4.10819,7.93962 -11.79995,16.99048 -10.43565,26.45833 0.25765,1.78806 1.00298,3.49568 1.93538,5.02709 6.04176,9.92425 17.30401,8.99583 27.35394,8.99583 h 89.16459 c 10.73891,0 25.85799,1.75551 30.83639,-10.58333 2.94032,-7.28716 -1.73064,-14.6902 -5.09005,-20.90209 -7.34431,-13.57974 -14.06472,-27.50741 -21.54979,-41.01042 -5.10249,-9.20459 -10.00733,-18.63275 -14.71453,-28.04583 -1.87299,-3.74544 -3.98436,-9.76101 -8.00286,-11.66283 -2.58974,-1.22582 -5.77611,-0.2503 -8.20208,0.89958 -5.38295,2.55164 -10.1436,6.24866 -15.61042,8.68336 -6.74581,3.00434 -14.08774,4.37674 -21.43125,3.28983 -3.76555,-0.55748 -7.17602,-1.94786 -10.84791,-2.79744 m 42.59791,17.56569 c 6.11691,-0.43286 6.65004,9.12759 0.52917,9.58294 -6.15341,0.45773 -6.69237,-9.14664 -0.52917,-9.58294 m -28.31041,25.29681 c 12.77064,-8.72807 27.39998,9.67185 17.41381,20.90103 -6.57463,7.39298 -19.4556,5.37712 -23.11188,-3.9677 -2.02591,-5.17763 -0.49927,-9.81471 2.25848,-14.2875 -7.28503,3.13452 -15.14554,-5.54381 -9.95097,-12.17083 3.66659,-4.67757 11.26198,-4.18068 13.88401,1.32292 1.36789,2.87126 0.6432,5.43057 -0.49345,8.20208 z"
               id="path302" /></g><text
             xml:space="preserve"
             style="font-style:normal;font-variant:normal;font-weight:normal;font-stretch:normal;font-size:131.496px;font-family:Broadway;-inkscape-font-specification:Broadway;fill:#000000;fill-opacity:1;stroke-width:0.438213"
             x="259.68811"
             y="133.56844"
             id="text1438"
             transform="scale(1.3254804,0.75444345)"><tspan
               sodipodi:role="line"
               id="tspan1436"
               style="font-style:normal;font-variant:normal;font-weight:normal;font-stretch:normal;font-family:'Agency FB';-inkscape-font-specification:'Agency FB';fill:#000000;stroke-width:0.438213"
               x="259.68811"
               y="133.56844">R</tspan></text><text
             xml:space="preserve"
             style="font-style:normal;font-variant:normal;font-weight:normal;font-stretch:normal;font-size:123.996px;font-family:'Agency FB';-inkscape-font-specification:'Agency FB';fill:#000000;fill-opacity:1;stroke-width:0.413218"
             x="471.93405"
             y="85.379517"
             id="text1492"
             transform="scale(0.8535192,1.1716198)"><tspan
               sodipodi:role="line"
               id="tspan1490"
               style="font-style:normal;font-variant:normal;font-weight:normal;font-stretch:normal;font-family:'Colonna MT';-inkscape-font-specification:'Colonna MT';stroke-width:0.413218"
               x="471.93405"
               y="85.379517">ADIUM</tspan></text><path
             style="fill:#000000;fill-opacity:1;stroke-width:0.35269"
             d="m 407.43288,99.854767 -9.92188,-0.381611 0.25442,1.399234 9.41306,0.25441 z"
             id="path2946" /><text
             xml:space="preserve"
             style="font-style:normal;font-variant:normal;font-weight:normal;font-stretch:normal;font-size:105.833px;font-family:'Colonna MT';-inkscape-font-specification:'Colonna MT';fill:#000000;fill-opacity:1;stroke-width:0.35269"
             x="402.74747"
             y="173.84006"
             id="text3676"><tspan
               sodipodi:role="line"
               id="tspan3674"
               style="font-style:normal;font-variant:normal;font-weight:normal;font-stretch:normal;font-family:Forte;-inkscape-font-specification:Forte;fill:#000000;stroke-width:0.35269"
               x="402.74747"
               y="173.84006">GAMES</tspan></text></g><path
           style="fill:#00ff00;fill-opacity:1;stroke-width:1.25636"
           d="M 97.754332,598.81297 C 86.900296,596.44913 78.811869,585.9295 80.584244,576.48193 c 0.681452,-3.63245 3.905227,-9.99671 32.535356,-64.23011 10.53571,-19.95756 21.82886,-41.376 25.09589,-47.59653 l 5.94006,-11.31007 0.0239,-44.95781 c 0.0196,-36.8278 -0.20687,-45.09411 -1.25226,-45.71153 -1.3801,-0.81509 -3.43636,-4.29063 -3.43636,-5.80821 0,-0.51543 0.66648,-1.60363 1.48108,-2.41822 1.27769,-1.2777 5.19928,-1.48108 28.55792,-1.48108 19.80309,0 27.38066,0.30382 28.20785,1.131 2.08269,2.08269 1.36723,7.15331 -1.25142,8.86911 l -2.38242,1.56102 0.26183,44.87911 0.26183,44.87911 11.16657,20.73513 c 6.14162,11.40432 20.26307,38.4361 31.38101,60.07064 22.26445,43.32471 22.86042,44.94394 19.41132,52.74119 -1.03723,2.34483 -3.4016,5.41943 -5.25415,6.83245 -7.05929,5.38437 -6.23109,5.33217 -81.20999,5.1184 -37.8416,-0.10787 -70.407174,-0.54554 -72.367938,-0.97256 z m 142.873438,-7.83623 c 1.97318,-0.9376 4.73,-3.20251 6.12629,-5.03312 2.18732,-2.86773 2.53868,-4.2247 2.53868,-9.80434 v -6.47594 L 224.7876,521.07893 c -26.44023,-52.42092 -26.23144,-52.09828 -32.90254,-50.84677 -1.64153,0.30795 -6.86732,2.86519 -11.61285,5.68275 -14.81296,8.79487 -23.61172,10.58657 -35.82264,7.29461 l -6.8226,-1.83932 -5.02858,9.55015 c -2.76572,5.25258 -12.38012,23.3343 -21.36533,40.18158 -8.98521,16.84729 -17.153362,32.46854 -18.151455,34.71389 -2.2323,5.02187 -2.420455,12.91666 -0.400917,16.82202 1.666734,3.22312 6.301462,7.44694 9.999302,9.1128 2.62293,1.18162 116.84296,2.49931 128.23389,1.47937 3.36946,-0.3017 7.74071,-1.31567 9.71389,-2.25327 z M 185.64046,445.39588 c 1.47622,-2.75837 1.32913,-78.50196 -0.15535,-79.98644 -1.73149,-1.7315 -5.28528,-1.34577 -6.37588,0.69204 -1.47623,2.75837 -1.32913,78.50197 0.15534,79.98644 1.7315,1.7315 5.28528,1.34577 6.37589,-0.69204 z"
           id="path3759"
           transform="scale(0.26458333)" /></g><rect
         style="fill:#000000;fill-opacity:1;stroke-width:0.35269"
         id="rect4105"
         width="109.18472"
         height="3.175"
         x="50.094444"
         y="94.897217"
         ry="1.5875" /><rect
         style="fill:#000000;fill-opacity:1;stroke-width:0.33396"
         id="rect4105-2"
         width="97.895836"
         height="3.175"
         x="62.35347"
         y="146.22639"
         ry="1.5875" /></g></g></svg>
